HIERARCHY
ROOT Hips
{
	OFFSET 0.00000 0.00000 0.00000
	CHANNELS 6 Xposition Yposition Zposition Zrotation Yrotation Xrotation 
	JOINT LHipJoint
	{
		OFFSET 0 0 0
		CHANNELS 3 Zrotation Yrotation Xrotation
		JOINT LeftHip
		{
			OFFSET 2.36090 -1.39315 1.24752
			CHANNELS 3 Zrotation Yrotation Xrotation
			JOINT LeftKnee
			{
				OFFSET 2.06810 -5.68207 0.00000
				CHANNELS 3 Zrotation Yrotation Xrotation
				JOINT LeftAnkle
				{
					OFFSET 2.46631 -6.77613 0.00000
					CHANNELS 3 Zrotation Yrotation Xrotation
					JOINT LeftToe
					{
						OFFSET 0.26031 -0.71520 1.99545
						CHANNELS 3 Zrotation Yrotation Xrotation
						End Site
						{
							OFFSET 0.00000 -0.00000 1.05957
						}
					}
				}
			}
		}
	}
	JOINT RHipJoint
	{
		OFFSET 0 0 0
		CHANNELS 3 Zrotation Yrotation Xrotation
		JOINT RightHip
		{
			OFFSET -2.25243 -1.39315 1.24752
			CHANNELS 3 Zrotation Yrotation Xrotation
			JOINT RightKnee
			{
				OFFSET -2.17343 -5.97145 0.00000
				CHANNELS 3 Zrotation Yrotation Xrotation
				JOINT RightAnkle
				{
					OFFSET -2.52372 -6.93386 0.00000
					CHANNELS 3 Zrotation Yrotation Xrotation
					JOINT RightToe
					{
						OFFSET -0.22538 -0.61923 2.11447
						CHANNELS 3 Zrotation Yrotation Xrotation
						End Site
						{
							OFFSET -0.00000 -0.00000 1.10506
						}
					}
				}
			}
		}
	}
	JOINT lowerback
	{
		OFFSET 0 0 0
		CHANNELS 3 Zrotation Yrotation Xrotation
		JOINT Chest
		{
			OFFSET 0.01594 2.13103 0.08007
			CHANNELS 3 Zrotation Yrotation Xrotation
			JOINT Chest2
			{
				OFFSET 0.01393 2.09723 0.18338
				CHANNELS 3 Zrotation Yrotation Xrotation
				JOINT lowerneck
				{
					OFFSET 0 0 0
					CHANNELS 3 Zrotation Yrotation Xrotation
					JOINT Neck
					{
						OFFSET 0.05351 1.38915 0.32494
						CHANNELS 3 Zrotation Yrotation Xrotation
						JOINT Head
						{
							OFFSET 0.00711 1.45992 -0.21666
							CHANNELS 3 Zrotation Yrotation Xrotation
							End Site
							{
								OFFSET -0.00433 1.47702 -0.11056
							}
						}
					}
				}
				JOINT LeftCollar
				{
					OFFSET 0 0 0
					CHANNELS 3 Zrotation Yrotation Xrotation
					JOINT LeftShoulder
					{
						OFFSET 2.87198 0.92249 0.11132
CHANNELS 3 Zrotation Xrotation Yrotation
						JOINT LeftElbow
						{
OFFSET 0 -5.527310 0.000000
CHANNELS 3 Zrotation Xrotation Yrotation
							JOINT LeftWrist
							{
OFFSET 0 -3.110590 0.000000
CHANNELS 3 Zrotation Xrotation Yrotation
								JOINT lhand
								{
									OFFSET 0 0 0
CHANNELS 3 Zrotation Xrotation Yrotation
									JOINT LFingers
									{
OFFSET 0 -0.419630 0.000000
CHANNELS 3 Zrotation Xrotation Yrotation
										End Site
										{
OFFSET 0 -0.338310 0.000000
										}
									}
								}
								JOINT LThumb
								{
OFFSET 0 0.000000 0.000000
CHANNELS 3 Zrotation Xrotation Yrotation
									End Site
									{
OFFSET 0 -0.343480 0.343480
									}
								}
							}
						}
					}
				}
				JOINT RightCollar
				{
					OFFSET 0 0 0
					CHANNELS 3 Zrotation Yrotation Xrotation
					JOINT RightShoulder
					{
						OFFSET -2.94710 0.68072 0.32187
CHANNELS 3 Zrotation Xrotation Yrotation
						JOINT RightElbow
						{
OFFSET 0 -5.253960 -0.000000
CHANNELS 3 Zrotation Xrotation Yrotation
							JOINT RightWrist
							{
OFFSET 0 -3.105670 0.000000
CHANNELS 3 Zrotation Xrotation Yrotation
								JOINT rhand
								{
									OFFSET 0 0 0
CHANNELS 3 Zrotation Xrotation Yrotation
									JOINT RFingers
									{
OFFSET 0 -0.498680 0.000000
CHANNELS 3 Zrotation Xrotation Yrotation
										End Site
										{
OFFSET 0 -0.402040 0.000000
										}
									}
								}
								JOINT RThumb
								{
OFFSET 0 0.000000 0.000000
CHANNELS 3 Zrotation Xrotation Yrotation
									End Site
									{
OFFSET 0 -0.408180 0.408180
									}
								}
							}
						}
					}
				}
			}
		}
	}
}
MOTION
Frames: 12
Frame Time: .0083333
3.6782 15.6163 31.2813 31.9513 -84.8039 37.0235 0.0000 0.0000 0.0000 0.0000 0.0000 0.0000 0.0000 0.0000 0.0000 0.0000 0.0000 0.0000 0.0000 0.0000 0.0000 0.0000 0.0000 0.0000 -21.6091 25.2112 -94.2270 -2.2311 -9.3317 26.8384 1.1491 -18.5677 -6.7437 -0.2049 -2.9148 8.0415 2.9078 4.8084 8.6931 4.2070 5.9906 7.5983 2.3693 2.8164 2.9073 12.1961 8.8347 -12.8682 4.2200 7.1221 27.1087 0.4653 4.6919 11.3889 0.0000 0.0000 0.0000 21.4274 16.6437 -28.2078 22.3571 -33.3783 6.7813 -2.9097 -55.9963 -2.3691 0.0 0.0 0.0 -7.1250 0.0 0.0 -23.2585 31.6879 -8.1783 0.0000 0.0000 0.0000 -25.4263 -15.8378 76.9624 -85.7550 -59.9318 -56.3246 32.3963 -58.2786 10.2455 0.0 0.0 0.0 7.1250 0.0 -0.0 45.4891 35.3583 15.1536
3.6749 15.6125 31.2782 32.0730 -84.7748 37.1474 0.0000 0.0000 0.0000 0.0000 0.0000 0.0000 0.0000 0.0000 0.0000 0.0000 0.0000 0.0000 0.0000 0.0000 0.0000 0.0000 0.0000 0.0000 -21.6896 25.0944 -94.4764 -2.2306 -9.3307 26.8354 1.1473 -18.5534 -6.7556 -0.2089 -2.9425 8.1188 2.9312 4.7977 8.8396 4.2221 5.9765 7.6446 2.3635 2.8077 2.8773 12.2287 8.8304 -12.8612 4.1468 7.1422 26.9918 0.4328 4.6926 11.3472 -0.0000 -0.0000 0.0000 21.4725 16.5087 -28.3587 22.4004 -33.4266 6.8051 -3.1364 -56.0754 -2.324 0.0 0.0 0.0 -7.1250 0.0 0.0 -23.4167 31.6356 -8.2756 -0.0000 -0.0000 0.0000 -25.3954 -15.8176 76.9234 -85.6636 -59.9288 -56.2455 32.4936 -58.2689 10.197 0.0 0.0 0.0 7.1250 0.0 -0.0 45.5080 35.2974 15.2703
3.6715 15.6087 31.2754 32.1554 -84.7429 37.2983 0.0000 0.0000 0.0000 0.0000 0.0000 0.0000 0.0000 0.0000 0.0000 0.0000 0.0000 0.0000 0.0000 0.0000 0.0000 0.0000 0.0000 0.0000 -21.7593 24.9813 -94.7126 -2.2307 -9.3308 26.8358 1.1454 -18.5386 -6.7699 -0.2124 -2.9668 8.1864 2.9690 4.7702 8.9863 4.2335 5.9415 7.6912 2.3473 2.7895 2.8499 12.2339 8.8407 -12.8531 4.0895 7.1832 26.8845 0.4136 4.7020 11.3076 0.0000 0.0000 0.0000 21.5511 16.4024 -28.5216 22.4618 -33.4949 6.8389 -3.3336 -56.2443 -2.2897 0.0 0.0 0.0 -7.1250 0.0 0.0 -23.5554 31.5945 -8.3585 0.0000 0.0000 0.0000 -25.3553 -15.8348 76.9367 -85.5764 -59.9259 -56.17 32.5903 -58.2774 10.1706 0.0 0.0 0.0 7.1250 0.0 -0.0 45.5386 35.2553 15.3626
3.6681 15.6051 31.2730 32.2560 -84.7114 37.4193 0.0000 0.0000 0.0000 0.0000 0.0000 0.0000 0.0000 0.0000 0.0000 0.0000 0.0000 0.0000 0.0000 0.0000 0.0000 0.0000 0.0000 0.0000 -21.8254 24.8707 -94.9377 -2.2313 -9.3321 26.8399 1.1435 -18.5233 -6.7788 -0.2135 -2.9751 8.2093 3.0171 4.7288 9.1334 4.2386 5.8895 7.7368 2.3201 2.7635 2.8234 12.2166 8.8628 -12.8477 4.0511 7.2387 26.7872 0.4072 4.7181 11.2712 -0.0000 -0.0000 0.0000 21.6602 16.3182 -28.6906 22.5363 -33.5778 6.8801 -3.5072 -56.4973 -2.2821 0.0 0.0 0.0 -7.1250 0.0 0.0 -23.6827 31.5791 -8.4211 -0.0000 -0.0000 0.0000 -25.3088 -15.8848 76.9955 -85.4922 -59.9231 -56.0971 32.6739 -58.3024 10.1592 0.0 0.0 0.0 7.1250 0.0 -0.0 45.5709 35.2286 15.4299
3.6647 15.6016 31.2707 32.3507 -84.6829 37.5346 0.0000 0.0000 0.0000 0.0000 0.0000 0.0000 0.0000 0.0000 0.0000 0.0000 0.0000 0.0000 0.0000 0.0000 0.0000 0.0000 0.0000 0.0000 -21.8875 24.7665 -95.1518 -2.2322 -9.3339 26.8455 1.1416 -18.5090 -6.7813 -0.2133 -2.9735 8.2049 3.0731 4.6771 9.2807 4.2382 5.8250 7.7813 2.2840 2.7319 2.7973 12.1847 8.8943 -12.8437 4.0186 7.3075 26.7018 0.4075 4.7397 11.2390 -0.0000 -0.0000 0.0000 21.7989 16.2498 -28.8656 22.6197 -33.6703 6.9263 -3.6348 -56.8196 -2.2907 0.0 0.0 0.0 -7.1250 0.0 0.0 -23.7797 31.5808 -8.4604 -0.0000 -0.0000 0.0000 -25.2635 -15.96 77.0919 -85.4311 -59.921 -56.0442 32.7407 -58.3627 10.1717 0.0 0.0 0.0 7.1250 0.0 -0.0 45.6085 35.2257 15.4597
3.6613 15.5982 31.2687 32.4754 -84.6564 37.6060 0.0000 0.0000 0.0000 0.0000 0.0000 0.0000 0.0000 0.0000 0.0000 0.0000 0.0000 0.0000 0.0000 0.0000 0.0000 0.0000 0.0000 0.0000 -21.9466 24.6666 -95.3517 -2.2332 -9.3359 26.8517 1.1400 -18.4963 -6.7769 -0.2114 -2.9604 8.1684 3.1306 4.6213 9.4307 4.2361 5.7558 7.8241 2.2453 2.6982 2.7681 12.1484 8.9287 -12.8469 3.9879 7.3786 26.6288 0.4102 4.7627 11.2128 -0.0000 -0.0000 0.0000 21.9512 16.1869 -29.0424 22.7061 -33.7659 6.9743 -3.6872 -57.1773 -2.309 0.0 0.0 0.0 -7.1250 0.0 0.0 -23.8231 31.595 -8.4696 -0.0000 -0.0000 0.0000 -25.2292 -16.0449 77.2078 -85.4058 -59.9201 -56.0224 32.7749 -58.4611 10.2179 0.0 0.0 0.0 7.1250 0.0 -0.0 45.6495 35.2582 15.4305
3.6581 15.5949 31.2667 32.5988 -84.6349 37.6638 0.0000 0.0000 0.0000 0.0000 0.0000 0.0000 0.0000 0.0000 0.0000 0.0000 0.0000 0.0000 0.0000 0.0000 0.0000 0.0000 0.0000 0.0000 -22.0020 24.5760 -95.5374 -2.2341 -9.3377 26.8574 1.1385 -18.4847 -6.7710 -0.2096 -2.9474 8.1323 3.1802 4.5697 9.5802 4.2378 5.6918 7.8655 2.2149 2.6666 2.7364 12.1456 8.9587 -12.8715 3.9093 7.4434 26.5951 0.3920 4.7822 11.2095 0.0000 0.0000 0.0000 22.0856 16.1117 -29.1871 22.7790 -33.8462 7.0148 -3.6612 -57.5086 -2.3186 0.0 0.0 0.0 -7.1250 0.0 0.0 -23.8062 31.605 -8.4562 0.0000 0.0000 0.0000 -25.2092 -16.1287 77.3284 -85.4114 -59.9203 -56.0272 32.7652 -58.5965 10.3022 0.0 0.0 0.0 7.1250 0.0 -0.0 45.6914 35.3323 15.3299
3.6549 15.5918 31.2648 32.6947 -84.6176 37.7350 0.0000 0.0000 0.0000 0.0000 0.0000 0.0000 0.0000 0.0000 0.0000 0.0000 0.0000 0.0000 0.0000 0.0000 0.0000 0.0000 0.0000 0.0000 -22.0514 24.4963 -95.7096 -2.2349 -9.3391 26.8620 1.1376 -18.4778 -6.7593 -0.2064 -2.9250 8.0701 3.2237 4.5286 9.7263 4.2456 5.6410 7.9057 2.1934 2.6410 2.7040 12.1565 8.9778 -12.9081 3.8205 7.4906 26.5719 0.3663 4.7946 11.2130 -0.0000 -0.0000 0.0000 22.1935 16.0124 -29.3023 22.8326 -33.9052 7.0447 -3.5876 -57.7847 -2.3122 0.0 0.0 0.0 -7.1250 0.0 0.0 -23.7499 31.6027 -8.4342 -0.0000 -0.0000 0.0000 -25.1999 -16.2078 77.4359 -85.4325 -59.921 -56.0454 32.7272 -58.759 10.4202 0.0 0.0 0.0 7.1250 0.0 -0.0 45.7387 35.4407 15.1729
3.6519 15.5889 31.2630 32.7789 -84.6033 37.8052 0.0000 0.0000 0.0000 0.0000 0.0000 0.0000 0.0000 0.0000 0.0000 0.0000 0.0000 0.0000 0.0000 0.0000 0.0000 0.0000 0.0000 0.0000 -22.0956 24.4242 -95.8675 -2.2353 -9.3398 26.8643 1.1368 -18.4716 -6.7502 -0.2031 -2.9016 8.0049 3.2604 4.4963 9.8620 4.2579 5.6006 7.9468 2.1807 2.6202 2.6770 12.1860 8.9874 -12.9617 3.7255 7.5183 26.5630 0.3339 4.7997 11.2262 -0.0000 -0.0000 0.0000 22.26 15.8909 -29.3551 22.8674 -33.9435 7.0641 -3.4724 -57.9721 -2.2794 0.0 0.0 0.0 -7.1250 0.0 0.0 -23.6561 31.5783 -8.4105 -0.0000 -0.0000 0.0000 -25.1975 -16.2904 77.5338 -85.4707 -59.9223 -56.0785 32.647 -58.976 10.6023 0.0 0.0 0.0 7.1250 0.0 -0.0 45.8022 35.6123 14.9165
3.6490 15.5861 31.2612 32.8429 -84.5934 37.8843 0.0000 0.0000 0.0000 0.0000 0.0000 0.0000 0.0000 0.0000 0.0000 0.0000 0.0000 0.0000 0.0000 0.0000 0.0000 0.0000 0.0000 0.0000 -22.1358 24.3611 -96.0140 -2.2352 -9.3398 26.8640 1.1359 -18.4648 -6.7419 -0.2010 -2.8866 7.9631 3.2868 4.4784 9.9878 4.2770 5.5779 7.9864 2.1801 2.6075 2.6516 12.2202 8.9847 -13.0176 3.6312 7.5272 26.5596 0.2985 4.7972 11.2413 -0.0000 -0.0000 0.0000 22.2859 15.7382 -29.3598 22.8734 -33.9501 7.0675 -3.315 -58.0612 -2.2053 0.0 0.0 0.0 -7.1250 0.0 0.0 -23.5209 31.5179 -8.3919 -0.0000 -0.0000 0.0000 -25.2073 -16.3584 77.6039 -85.5302 -59.9244 -56.13 32.5487 -59.2067 10.8226 0.0 0.0 0.0 7.1250 0.0 -0.0 45.8788 35.8193 14.6057
3.6462 15.5835 31.2595 32.8739 -84.5870 37.9864 0.0000 0.0000 0.0000 0.0000 0.0000 0.0000 0.0000 0.0000 0.0000 0.0000 0.0000 0.0000 0.0000 0.0000 0.0000 0.0000 0.0000 0.0000 -22.1707 24.3062 -96.1492 -2.2346 -9.3386 26.8603 1.1351 -18.4592 -6.7307 -0.1991 -2.8736 7.9271 3.3143 4.4627 10.1026 4.2942 5.5579 8.0262 2.1778 2.5963 2.6329 12.2469 8.9821 -13.0625 3.5457 7.5370 26.5539 0.2670 4.7951 11.2528 0.0000 0.0000 0.0000 22.308 15.5819 -29.3436 22.8738 -33.9505 7.0677 -3.1084 -58.1118 -2.0949 0.0 0.0 0.0 -7.1250 0.0 0.0 -23.3404 31.4263 -8.3732 0.0000 0.0000 0.0000 -25.2194 -16.4289 77.6696 -85.6122 -59.9271 -56.201 32.4503 -59.4402 11.0661 0.0 0.0 0.0 7.1250 0.0 -0.0 45.9686 36.0456 14.2686
3.6435 15.5813 31.2582 32.8822 -84.5822 38.1014 0.0000 0.0000 0.0000 0.0000 0.0000 0.0000 0.0000 0.0000 0.0000 0.0000 0.0000 0.0000 0.0000 0.0000 0.0000 0.0000 0.0000 0.0000 -22.2001 24.2566 -96.2730 -2.2335 -9.3363 26.8532 1.1341 -18.4512 -6.7244 -0.1991 -2.8736 7.9271 3.3428 4.4530 10.2086 4.3142 5.5452 8.0647 2.1779 2.5887 2.6174 12.2577 8.9755 -13.0968 3.4711 7.5445 26.5442 0.2408 4.7917 11.2590 0.0000 0.0000 0.0000 22.3221 15.4161 -29.3178 22.8629 -33.9386 7.0616 -2.8625 -58.1273 -1.9469 0.0 0.0 0.0 -7.1250 0.0 0.0 -23.1219 31.3015 -8.3579 0.0000 0.0000 0.0000 -25.245 -16.489 77.7144 -85.7156 -59.9305 -56.2905 32.3617 -59.6502 11.3082 0.0 0.0 0.0 7.1250 0.0 -0.0 46.0628 36.268 13.9391
